<?xml version="1.0" encoding="UTF-8" standalone="no"?>
<svg width="20px" height="20px" viewBox="0 0 20 20" version="1.1" xmlns="http://www.w3.org/2000/svg" xmlns:xlink="http://www.w3.org/1999/xlink">
    <!-- Generator: Sketch 3.8.3 (29802) - http://www.bohemiancoding.com/sketch -->
    <title>icon_hotpoint_c</title>
    <desc>Created with Sketch.</desc>
    <defs></defs>
    <g id="Page-1" stroke="none" stroke-width="1" fill="none" fill-rule="evenodd">
        <g id="Artboard-6" transform="translate(-142.000000, -69.000000)" fill="#DFDFDF">
            <path d="M159.556022,72.430565 C159.35946,72.2348536 158.99867,72 158.39622,72 C157.784409,72 156.984545,72.2629339 156.070658,72.7317903 C156.505478,72.9623893 156.923279,73.2363853 157.316403,73.5571817 C157.571679,73.4525187 158.459188,73.1376787 158.653197,73.3333901 C159.691318,74.3664057 154.880222,79.762083 153.842101,80.8019061 C152.463612,82.1803948 148.499181,85.7236216 146.576104,85.7236216 C146.011094,85.7236216 146.325934,84.846324 146.537812,84.3230089 C146.218718,83.9307352 145.943871,83.512934 145.714123,83.0789653 C144.217356,85.9865555 145.351631,87 146.576104,87 C147.564021,87 149.042067,86.3260722 150.706465,85.1747788 C151.268922,85.3534717 151.864565,85.456433 152.486587,85.456433 C155.77624,85.456433 158.44302,82.7896529 158.44302,79.5 C158.44302,78.8796801 158.340059,78.2857386 158.163068,77.724132 C159.139072,76.317563 160.76688,73.6405718 159.556022,72.430565 L159.556022,72.430565 Z M152.939361,79.8994214 C154.479524,78.3584071 155.81802,76.7178352 156.704678,75.2950987 C155.626563,74.2127297 154.134902,73.5430565 152.486672,73.5430565 C149.197019,73.5430565 146.530239,76.2098366 146.530239,79.4994894 C146.530239,81.1417631 147.194807,82.6283186 148.269518,83.706433 C149.708422,82.8180736 151.376223,81.4617087 152.939361,79.8994214 L152.939361,79.8994214 Z" id="icon_hotpoint_c"></path>
        </g>
    </g>
</svg>