<?xml version="1.0" encoding="UTF-8" standalone="no"?>
<svg width="20px" height="20px" viewBox="0 0 20 20" version="1.1" xmlns="http://www.w3.org/2000/svg" xmlns:xlink="http://www.w3.org/1999/xlink">
    <!-- Generator: Sketch 3.8.3 (29802) - http://www.bohemiancoding.com/sketch -->
    <title>more_svg</title>
    <desc>Created with Sketch.</desc>
    <defs></defs>
    <g id="Page-1" stroke="none" stroke-width="1" fill="none" fill-rule="evenodd">
        <g id="Artboard-6" transform="translate(-110.000000, -69.000000)" fill="#D8D8D8">
            <path d="M120.5,75 C121.328427,75 122,74.3284271 122,73.5 C122,72.6715729 121.328427,72 120.5,72 C119.671573,72 119,72.6715729 119,73.5 C119,74.3284271 119.671573,75 120.5,75 Z M120.5,80 C121.328427,80 122,79.3284271 122,78.5 C122,77.6715729 121.328427,77 120.5,77 C119.671573,77 119,77.6715729 119,78.5 C119,79.3284271 119.671573,80 120.5,80 Z M120.5,85 C121.328427,85 122,84.3284271 122,83.5 C122,82.6715729 121.328427,82 120.5,82 C119.671573,82 119,82.6715729 119,83.5 C119,84.3284271 119.671573,85 120.5,85 Z" id="more_svg"></path>
        </g>
    </g>
</svg>